<?xml version="1.0" encoding="UTF-8"?>
<svg width="60px" height="52px" viewBox="0 0 60 52" version="1.1" xmlns="http://www.w3.org/2000/svg" xmlns:xlink="http://www.w3.org/1999/xlink">
    <!-- Generator: Sketch 49.3 (51167) - http://www.bohemiancoding.com/sketch -->
    <title>001-id-card</title>
    <desc>Created with Sketch.</desc>
    <defs></defs>
    <g id="Page-1" stroke="none" stroke-width="1" fill="none" fill-rule="evenodd">
        <g id="001-id-card" fill="#30B6D3" fill-rule="nonzero">
            <path d="M52.29,40.29 C52.109,40.479 52,40.74 52,41 C52,41.26 52.1,41.52 52.29,41.71 C52.479,41.89 52.74,42 53,42 C53.26,42 53.52,41.89 53.71,41.71 C53.89,41.52 54,41.26 54,41 C54,40.74 53.89,40.479 53.71,40.29 C53.34,39.93 52.67,39.92 52.29,40.29 Z" id="Shape"></path>
            <path d="M23.638,38.263 L20,36.405 L20,36.018 C21.628,35.129 22.773,33.664 23.412,31.653 C24.381,31.14 25,30.14 25,29.018 L25,28.018 C25,27.091 24.569,26.232 23.849,25.668 C23.225,21.888 20.587,19.972 16,19.972 C15.783,19.972 15.571,19.981 15.364,19.997 C14.499,20.064 13.235,19.994 12.14,19.256 C11.73,18.98 11.421,18.712 11.223,18.46 C10.887,18.032 10.322,17.883 9.822,18.091 C9.321,18.297 9.026,18.799 9.089,19.339 C9.131,19.711 9.194,20.147 9.289,20.624 C9.482,21.599 9.482,21.599 9.211,22.182 C9.109,22.403 8.983,22.672 8.835,23.035 C8.504,23.845 8.269,24.732 8.134,25.681 C7.424,26.245 7,27.1 7,28.018 L7,29.018 C7,30.14 7.619,31.14 8.588,31.654 C9.227,33.666 10.372,35.131 12,36.019 L12,36.395 L8.23,38.252 C6.854,39.003 6,40.443 6,42.011 L6,43.335 C6,44.138 6,46.018 16,46.018 C26,46.018 26,44.138 26,43.335 L26,42.091 C26,40.461 25.095,38.994 23.638,38.263 Z M24,43.109 C23.377,43.488 20.839,44.017 16,44.017 C11.161,44.017 8.623,43.488 8,43.109 L8,42.01 C8,41.175 8.456,40.407 9.151,40.027 L13.009,38.127 C13.611,37.833 14,37.21 14,36.539 L14,34.735 L13.396,34.474 C11.879,33.822 10.893,32.575 10.381,30.66 L10.238,30.128 L9.712,29.964 C9.293,29.834 9,29.444 9,29.018 L9,28.018 C9,27.655 9.207,27.319 9.541,27.141 L10.01,26.891 L10.065,26.363 C10.164,25.424 10.373,24.559 10.687,23.793 C10.82,23.468 10.933,23.225 11.025,23.026 C11.364,22.297 11.487,21.921 11.402,21.15 C12.577,21.822 13.989,22.109 15.524,21.992 C15.679,21.979 15.838,21.972 16.001,21.972 C19.745,21.972 21.573,23.328 21.93,26.371 L21.992,26.894 L22.458,27.139 C22.792,27.316 23,27.652 23,28.018 L23,29.018 C23,29.445 22.707,29.834 22.288,29.964 L21.762,30.128 L21.619,30.66 C21.107,32.575 20.121,33.822 18.604,34.474 L18,34.735 L18,36.547 C18,37.213 18.369,37.817 18.964,38.122 L22.732,40.046 L22.739,40.05 C23.517,40.439 24,41.222 24,42.091 L24,43.109 Z" id="Shape"></path>
            <path d="M31,25.018 L41,25.018 C41.553,25.018 42,24.571 42,24.018 C42,23.465 41.553,23.018 41,23.018 L31,23.018 C30.447,23.018 30,23.465 30,24.018 C30,24.571 30.447,25.018 31,25.018 Z" id="Shape"></path>
            <path d="M32,40.018 L31,40.018 C30.447,40.018 30,40.465 30,41.018 C30,41.571 30.447,42.018 31,42.018 L32,42.018 C32.553,42.018 33,41.571 33,41.018 C33,40.465 32.553,40.018 32,40.018 Z" id="Shape"></path>
            <path d="M38,40.018 L36,40.018 C35.447,40.018 35,40.465 35,41.018 C35,41.571 35.447,42.018 36,42.018 L38,42.018 C38.553,42.018 39,41.571 39,41.018 C39,40.465 38.553,40.018 38,40.018 Z" id="Shape"></path>
            <path d="M43,40.018 L42,40.018 C41.447,40.018 41,40.465 41,41.018 C41,41.571 41.447,42.018 42,42.018 L43,42.018 C43.553,42.018 44,41.571 44,41.018 C44,40.465 43.553,40.018 43,40.018 Z" id="Shape"></path>
            <path d="M49,40.018 L47,40.018 C46.447,40.018 46,40.465 46,41.018 C46,41.571 46.447,42.018 47,42.018 L49,42.018 C49.553,42.018 50,41.571 50,41.018 C50,40.465 49.553,40.018 49,40.018 Z" id="Shape"></path>
            <path d="M53,29.018 L31,29.018 C30.447,29.018 30,29.465 30,30.018 C30,30.571 30.447,31.018 31,31.018 L53,31.018 C53.553,31.018 54,30.571 54,30.018 C54,29.465 53.553,29.018 53,29.018 Z" id="Shape"></path>
            <path d="M53,35.018 L31,35.018 C30.447,35.018 30,35.465 30,36.018 C30,36.571 30.447,37.018 31,37.018 L53,37.018 C53.553,37.018 54,36.571 54,36.018 C54,35.465 53.553,35.018 53,35.018 Z" id="Shape"></path>
            <path d="M55.322,10 L37,10 L37,2.313 C37,1.037 35.963,0 34.687,0 L25.312,0 C24.037,0 23,1.037 23,2.313 L23,10 L4.678,10 C2.099,10 0,12.099 0,14.678 L0,47.323 C0,49.901 2.099,52 4.678,52 L55.323,52 C57.901,52 60,49.901 60,47.322 L60,14.678 C60,12.099 57.901,10 55.322,10 Z M25,2.313 C25,2.141 25.141,2 25.312,2 L34.687,2 C34.859,2 35,2.141 35,2.313 L35,10 L35,15.688 C35,15.859 34.859,16 34.687,16 L25.312,16 C25.141,16 25,15.859 25,15.688 L25,10 L25,2.313 Z M58,47.322 C58,48.799 56.799,50 55.322,50 L4.678,50 C3.201,50 2,48.799 2,47.322 L2,14.678 C2,13.201 3.201,12 4.678,12 L23,12 L23,15.688 C23,16.963 24.037,18 25.312,18 L34.687,18 C35.963,18 37,16.963 37,15.688 L37,12 L55.322,12 C56.799,12 58,13.201 58,14.678 L58,47.322 Z" id="Shape"></path>
            <path d="M30,11 C32.206,11 34,9.206 34,7 C34,4.794 32.206,3 30,3 C27.794,3 26,4.794 26,7 C26,9.206 27.794,11 30,11 Z M30,5 C31.103,5 32,5.897 32,7 C32,8.103 31.103,9 30,9 C28.897,9 28,8.103 28,7 C28,5.897 28.897,5 30,5 Z" id="Shape"></path>
        </g>
    </g>
</svg>