<?xml version="1.0" encoding="iso-8859-1"?>
<!-- Generator: Adobe Illustrator 19.0.0, SVG Export Plug-In . SVG Version: 6.00 Build 0)  -->
<svg version="1.1" id="Capa_1" xmlns="http://www.w3.org/2000/svg" xmlns:xlink="http://www.w3.org/1999/xlink" x="0px" y="0px"
	 viewBox="0 0 512.001 512.001" style="enable-background:new 0 0 512.001 512.001;" xml:space="preserve">
<g>
	<g>
		<path d="M262.546,285.356c16.659-15.873,27.133-36.729,29.933-59.343h14.155c15.904,0,28.843-12.939,28.843-28.843v-10.098
			c0-11.226-6.45-20.968-15.836-25.731V75.87c0-27.399-22.295-49.69-49.699-49.69h-12.463C249.005,10.221,232.117,0,213.97,0H154.2
			c-16.253,0-32.05,4.594-45.683,13.286c-3.492,2.227-4.519,6.863-2.292,10.356c2.228,3.494,6.863,4.519,10.356,2.292
			C127.801,18.781,140.809,15,154.2,15h59.77c13.025,0,25.116,7.57,30.797,19.272l1.29,2.67c1.251,2.591,3.875,4.238,6.753,4.238
			h17.131c19.133,0,34.699,15.562,34.699,34.69v82.36h-11.397v-33.808c0-25.008-10.639-48.975-29.188-65.753
			c-3.071-2.78-7.406-3.672-11.313-2.332c-3.911,1.343-6.786,4.716-7.505,8.802c-5.599,31.829-33.166,54.932-65.55,54.935
			c-0.002,0-0.005,0-0.007,0H91.325c-3.511,0-6.45,2.416-7.267,5.673V85.14c0-15.092,4.712-29.459,13.627-41.549
			c2.458-3.333,1.749-8.029-1.585-10.487s-8.029-1.749-10.487,1.585C74.784,49.375,69.06,66.821,69.06,85.14v76.2
			c-9.387,4.763-15.84,14.506-15.84,25.733v10.098c0,15.904,12.939,28.843,28.844,28.843h14.152
			c4.262,34.533,26.21,63.305,56.334,77.356v15.95h-5.39c-41.68,0-76.722,31.219-81.511,72.619l-9.503,82.192
			c-0.344,3.053,0.633,6.119,2.681,8.41c2.045,2.288,4.976,3.6,8.043,3.6h254.95c3.08,0,6.021-1.321,8.068-3.624
			c2.045-2.301,3.011-5.372,2.652-8.404l-1.889-16.411c-0.475-4.116-4.2-7.067-8.31-6.593c-4.114,0.474-7.066,4.194-6.593,8.309
			l1.351,11.722H284.25v-38.414c0-4.142-3.357-7.5-7.5-7.5s-7.5,3.358-7.5,7.5v38.414H119.444v-57.81c0-4.142-3.357-7.5-7.5-7.5
			c-4.143,0-7.5,3.358-7.5,7.5v57.81H71.593l8.957-77.479c3.913-33.831,32.55-59.342,66.61-59.342h5.39v4.43
			c0,23.048,18.751,41.8,41.8,41.8c11.168,0,21.664-4.346,29.554-12.237c7.897-7.898,12.247-18.397,12.247-29.563v-4.43h5.39
			c0.672,0,1.342,0.009,2.005,0.027c0.069,0.002,0.14,0.003,0.209,0.003c4.047,0,7.382-3.224,7.493-7.294
			c0.113-4.141-3.151-7.589-7.292-7.703c-0.798-0.022-1.606-0.033-2.415-0.033h-5.39v-15.945
			C245.76,298.888,254.678,292.846,262.546,285.356z M84.06,129.4c0.817,3.257,3.755,5.673,7.266,5.673h4.128v23.157H84.06V129.4z
			 M221.15,338.75c0,7.16-2.789,13.892-7.854,18.957c-5.057,5.058-11.785,7.843-18.946,7.843c-14.777,0-26.8-12.022-26.8-26.8
			v-29.803c8.53,2.393,17.517,3.679,26.797,3.679c9.172,0,18.171-1.272,26.803-3.693V338.75z M225.764,291.549
			c-0.022,0.009-0.044,0.019-0.066,0.028c-9.852,3.966-20.461,6.05-31.348,6.05c-11.066,0-21.646-2.148-31.34-6.048
			c-0.094-0.041-0.192-0.073-0.288-0.11c-29.301-11.914-50.425-39.912-52.147-73.341c-0.205-3.987-3.498-7.114-7.49-7.114H82.064
			c-7.634,0-13.844-6.21-13.844-13.843v-10.098c0-7.633,6.21-13.843,13.844-13.843h20.891c4.143,0,7.5-3.358,7.5-7.5v-30.656h69.226
			c37.416,0,69.586-25.173,78.894-60.755c12.568,13.555,19.669,31.482,19.669,50.104v41.308c0,4.142,3.357,7.5,7.5,7.5h20.891
			c7.633,0,13.843,6.21,13.843,13.843v10.098c0,7.633-6.21,13.843-13.843,13.843h-21.021c-3.991,0-7.283,3.126-7.49,7.112
			c-1.112,21.484-10.318,41.503-25.922,56.369C244.436,281.891,235.468,287.633,225.764,291.549z"/>
	</g>
</g>
<g>
	<g>
		<path d="M231.465,214.237c-3.842-1.556-8.212,0.293-9.77,4.131c-4.533,11.177-15.269,18.399-27.349,18.399
			c-7.876,0-15.294-3.072-20.878-8.642c-2.817-2.818-4.992-6.097-6.465-9.746c-1.551-3.84-5.921-5.7-9.762-4.148
			c-3.842,1.55-5.698,5.921-4.148,9.762c2.232,5.53,5.518,10.488,9.775,14.746c8.424,8.402,19.603,13.029,31.479,13.029
			c18.217,0,34.408-10.897,41.249-27.761C237.154,220.169,235.304,215.795,231.465,214.237z"/>
	</g>
</g>
<g>
	<g>
		<path d="M148.596,159.731c-4.143,0-7.5,3.358-7.5,7.5v4.415c0,4.142,3.357,7.5,7.5,7.5s7.5-3.358,7.5-7.5v-4.415
			C156.096,163.089,152.739,159.731,148.596,159.731z"/>
	</g>
</g>
<g>
	<g>
		<path d="M240.101,159.731c-4.143,0-7.5,3.358-7.5,7.5v4.415c0,4.142,3.357,7.5,7.5,7.5s7.5-3.358,7.5-7.5v-4.415
			C247.601,163.089,244.244,159.731,240.101,159.731z"/>
	</g>
</g>
<g>
	<g>
		<path d="M457.776,482.451l-17.719-30.691c4.372-4.066,5.542-10.757,2.432-16.143l-5.378-9.314
			c-3.613-6.256-11.642-8.409-17.902-4.796l-1.199,0.692l-3.507-6.076c14.655-13.882,24.389-32.303,27.501-52.798
			c0.622-4.095-2.194-7.919-6.289-8.541c-4.096-0.623-7.92,2.193-8.541,6.289c-2.881,18.97-12.535,35.817-27.047,47.746
			c-0.056,0.047-0.117,0.09-0.172,0.138c-3.204,2.618-6.64,5.001-10.294,7.111c-36.648,21.158-83.676,8.557-104.835-28.09
			c-10.249-17.752-12.972-38.434-7.666-58.234c5.305-19.801,18.004-36.35,35.757-46.6c17.752-10.25,38.434-12.973,58.234-7.667
			c19.8,5.306,36.35,18.004,46.6,35.757c3.935,6.814,6.787,14.123,8.478,21.724c0.9,4.043,4.91,6.592,8.95,5.692
			c4.043-0.899,6.592-4.906,5.692-8.95c-2.023-9.092-5.432-17.829-10.13-25.966c-12.253-21.223-32.037-36.403-55.708-42.746
			c-23.666-6.342-48.394-3.088-69.616,9.166c-21.223,12.252-36.403,32.037-42.746,55.708c-6.343,23.67-3.088,48.394,9.165,69.617
			c16.975,29.4,47.874,45.855,79.607,45.854c8.638,0,17.338-1.225,25.836-3.735l3.517,6.089l-1.198,0.692
			c-3.032,1.75-5.201,4.577-6.107,7.958c-0.906,3.381-0.44,6.913,1.31,9.944l5.377,9.314c1.75,3.032,4.576,5.2,7.958,6.106
			c1.129,0.302,2.274,0.452,3.413,0.452c1.297,0,2.579-0.217,3.821-0.601l17.724,30.698c1.39,2.406,3.91,3.751,6.502,3.751
			c1.272,0,2.563-0.324,3.743-1.006c3.587-2.071,4.816-6.658,2.745-10.245l-17.549-30.395l9.352-5.399l9.352-5.399l17.549,30.395
			c2.071,3.587,6.66,4.817,10.245,2.745C458.617,490.625,459.846,486.038,457.776,482.451z M397.159,429.058
			c1.884-1.088,3.714-2.242,5.5-3.446l2.359,4.088l-11.233,6.486l-2.359-4.085C393.357,431.16,395.27,430.148,397.159,429.058z
			 M426.234,442.814c-0.001,0-0.002,0.001-0.003,0.001l-15.847,9.149l-18.167,10.488l-3.482-6.032l36.332-20.976l3.483,6.033
			L426.234,442.814z"/>
	</g>
</g>
<g>
	<g>
		<path d="M411.114,315.064c-9.227-15.981-24.124-27.412-41.948-32.188c-17.822-4.776-36.441-2.325-52.422,6.901
			c-21.317,12.307-34.558,35.259-34.553,59.899c0.001,4.142,3.359,7.5,7.501,7.499c4.143-0.001,7.5-3.359,7.499-7.501
			c-0.004-19.296,10.362-37.27,27.053-46.906c25.823-14.909,58.968-6.031,73.88,19.796c14.912,25.826,6.031,58.969-19.795,73.88
			c-25.825,14.91-58.969,6.031-73.879-19.793c-0.203-0.352-0.401-0.705-0.596-1.059c-1.993-3.631-6.552-4.958-10.184-2.967
			c-3.631,1.993-4.959,6.552-2.967,10.184c0.245,0.447,0.496,0.892,0.754,1.339c12.782,22.139,36.05,34.529,59.945,34.529
			c11.711,0,23.575-2.978,34.426-9.242C418.817,390.388,430.16,348.054,411.114,315.064z"/>
	</g>
</g>
<g>
</g>
<g>
</g>
<g>
</g>
<g>
</g>
<g>
</g>
<g>
</g>
<g>
</g>
<g>
</g>
<g>
</g>
<g>
</g>
<g>
</g>
<g>
</g>
<g>
</g>
<g>
</g>
<g>
</g>
</svg>
