<?xml version="1.0" encoding="UTF-8"?>
<svg width="60px" height="76px" viewBox="0 0 60 76" version="1.1" xmlns="http://www.w3.org/2000/svg" xmlns:xlink="http://www.w3.org/1999/xlink">
    <!-- Generator: Sketch 49.3 (51167) - http://www.bohemiancoding.com/sketch -->
    <title>002-search</title>
    <desc>Created with Sketch.</desc>
    <defs></defs>
    <g id="Page-1" stroke="none" stroke-width="1" fill="none" fill-rule="evenodd">
        <g id="002-search" fill="#30B6D3" fill-rule="nonzero">
            <path d="M30.9673892,42.1708374 C33.4293103,39.8250739 34.9771921,36.7429064 35.3909852,33.400936 L37.4828571,33.400936 C39.833202,33.400936 41.7453695,31.4887685 41.7453695,29.1384236 L41.7453695,27.6461084 C41.7453695,25.9870936 40.7921675,24.5473892 39.4050739,23.8434975 L39.4050739,11.2123153 C39.4050739,7.16320197 36.1102463,3.86896552 32.0603941,3.86896552 L30.2185714,3.86896552 C28.9662562,1.51049261 26.4704926,0 23.78867,0 L14.955665,0 C12.5537438,0 10.2192118,0.678916256 8.20448276,1.96344828 C7.68842365,2.29256158 7.53665025,2.97768473 7.86576355,3.49389163 C8.19502463,4.01024631 8.88,4.16172414 9.3962069,3.83261084 C11.054335,2.77551724 12.9766995,2.21674877 14.955665,2.21674877 L23.78867,2.21674877 C25.7135468,2.21674877 27.5003941,3.33546798 28.3399507,5.06482759 L28.5305911,5.45940887 C28.715468,5.84231527 29.1032512,6.08571429 29.5285714,6.08571429 L32.0602463,6.08571429 C34.8877833,6.08571429 37.1881773,8.38551724 37.1881773,11.2123153 L37.1881773,23.3837438 L35.5038916,23.3837438 L35.5038916,18.3874877 C35.5038916,14.6917241 33.9316256,11.149803 31.1903941,8.67029557 C30.7365517,8.25945813 30.0959113,8.12763547 29.5185222,8.32566502 C28.9405419,8.52413793 28.515665,9.02261084 28.4094089,9.6264532 C27.5819704,14.3302463 23.5080296,17.7444828 18.7222167,17.7449261 C18.7219212,17.7449261 18.7214778,17.7449261 18.7211823,17.7449261 L5.6637931,17.7449261 C5.14492611,17.7449261 4.71059113,18.1019704 4.58985222,18.5833005 L4.58985222,12.582266 C4.58985222,10.3519212 5.2862069,8.22871921 6.60369458,6.4420197 C6.96694581,5.94945813 6.86216749,5.25546798 6.36945813,4.89221675 C5.87674877,4.52896552 5.1829064,4.63374384 4.81965517,5.1264532 C3.21931034,7.29679803 2.37339901,9.87502463 2.37339901,12.582266 L2.37339901,23.8433498 C0.986157635,24.5472414 0.0325123153,25.9870936 0.0325123153,27.6462562 L0.0325123153,29.1385714 C0.0325123153,31.4889163 1.9446798,33.4010837 4.29517241,33.4010837 L6.38660099,33.4010837 C7.0164532,38.5044828 10.26,42.7565025 14.7118227,44.8330049 L14.7118227,47.1901478 L13.9152709,47.1901478 C7.75566502,47.1901478 2.57704433,51.8037931 1.86931034,57.9220197 L0.464926108,70.0686207 C0.41408867,70.519803 0.558472906,70.9729064 0.861133005,71.3114778 C1.16334975,71.6496059 1.59650246,71.8434975 2.04975369,71.8434975 L39.7270936,71.8434975 C40.182266,71.8434975 40.6168966,71.6482759 40.9194089,71.307931 C41.2216256,70.9678818 41.3643842,70.5140394 41.31133,70.0659606 L41.0321675,67.6406897 C40.9619704,67.0324138 40.4114778,66.5963054 39.8040887,66.6663547 C39.1961084,66.7364039 38.7598522,67.2861576 38.8297537,67.8942857 L39.0294089,69.626601 L34.1748768,69.626601 L34.1748768,63.9496552 C34.1748768,63.3375369 33.6787685,62.8412808 33.0665025,62.8412808 C32.4542365,62.8412808 31.9581281,63.3375369 31.9581281,63.9496552 L31.9581281,69.626601 L9.81931034,69.626601 L9.81931034,61.0832512 C9.81931034,60.471133 9.32320197,59.9748768 8.71093596,59.9748768 C8.09866995,59.9748768 7.60256158,60.471133 7.60256158,61.0832512 L7.60256158,69.626601 L2.74773399,69.626601 L4.07142857,58.1765025 C4.64970443,53.1768473 8.8817734,49.4067488 13.9152709,49.4067488 L14.7118227,49.4067488 L14.7118227,50.0614286 C14.7118227,53.4675369 17.4829064,56.2387685 20.8891626,56.2387685 C22.5396059,56.2387685 24.0907389,55.5965025 25.2567488,54.4303448 C26.4237931,53.2631527 27.0666502,51.7115764 27.0666502,50.0614286 L27.0666502,49.4067488 L27.863202,49.4067488 C27.9625123,49.4067488 28.0615271,49.4080788 28.1595074,49.4107389 C28.1697044,49.4110345 28.180197,49.4111823 28.1903941,49.4111823 C28.7884729,49.4111823 29.28133,48.9347291 29.297734,48.3332512 C29.3144335,47.7212808 28.832069,47.2117241 28.2200985,47.1948768 C28.1021675,47.1916256 27.9827586,47.19 27.863202,47.19 L27.0666502,47.19 L27.0666502,44.8335961 C28.4866995,44.1706404 29.8046305,43.277734 30.9673892,42.1708374 Z M4.59014778,19.1231527 C4.7108867,19.6044828 5.14507389,19.9615271 5.66394089,19.9615271 L6.27399015,19.9615271 L6.27399015,23.3837438 L4.59014778,23.3837438 L4.59014778,19.1231527 Z M24.8497537,50.0615764 C24.8497537,51.1197044 24.4375862,52.1145813 23.689064,52.8631034 C22.9417241,53.6105911 21.9474384,54.0221675 20.8891626,54.0221675 C18.7053695,54.0221675 16.9285714,52.2455172 16.9285714,50.0615764 L16.9285714,45.6571921 C18.1891626,46.0108374 19.5172906,46.2008867 20.8887192,46.2008867 C22.2441872,46.2008867 23.5740887,46.0129064 24.8497537,45.6551232 L24.8497537,50.0615764 Z M25.5316256,43.0860591 C25.5283744,43.0873892 25.5251232,43.088867 25.5218719,43.090197 C24.0659113,43.6763054 22.4980788,43.9842857 20.8891626,43.9842857 C19.2537931,43.9842857 17.6902463,43.6668473 16.2576355,43.0904926 C16.2437438,43.0844335 16.2292611,43.0797044 16.2150739,43.0742365 C11.8848768,41.3135468 8.76310345,37.1759113 8.50862069,32.235665 C8.47832512,31.6464532 7.99167488,31.184335 7.40172414,31.184335 L4.29517241,31.184335 C3.16699507,31.184335 2.24926108,30.266601 2.24926108,29.1385714 L2.24926108,27.6462562 C2.24926108,26.5182266 3.16699507,25.6004926 4.29517241,25.6004926 L7.38251232,25.6004926 C7.99477833,25.6004926 8.4908867,25.1042365 8.4908867,24.4921182 L8.4908867,19.9616749 L18.72133,19.9616749 C24.2507882,19.9616749 29.0049754,16.2415271 30.3805419,10.9831034 C32.2378818,12.9863054 33.2872906,15.6356158 33.2872906,18.3876355 L33.2872906,24.492266 C33.2872906,25.1043842 33.783399,25.6006404 34.395665,25.6006404 L37.4830049,25.6006404 C38.6110345,25.6006404 39.5287685,26.5183744 39.5287685,27.6464039 L39.5287685,29.1387192 C39.5287685,30.2667488 38.6110345,31.1844828 37.4830049,31.1844828 L34.3764532,31.1844828 C33.7866502,31.1844828 33.3001478,31.6464532 33.2695567,32.2355172 C33.1052217,35.4104926 31.7447291,38.3689655 29.4387192,40.5659113 C28.2910345,41.6587685 26.9657143,42.5073399 25.5316256,43.0860591 Z" id="Shape"></path>
            <path d="M26.3741379,31.6606404 C25.8063547,31.4306897 25.1605419,31.7039409 24.9302956,32.271133 C24.2603941,33.9229064 22.6737931,34.990197 20.8885714,34.990197 C19.7246305,34.990197 18.6283744,34.5362069 17.8031527,33.7130542 C17.3868473,33.296601 17.0654187,32.8120197 16.847734,32.2727586 C16.6185222,31.7052709 15.9727094,31.4303941 15.4050739,31.6597537 C14.8372906,31.8888177 14.5630049,32.5347783 14.792069,33.1024138 C15.1219212,33.9196552 15.6075369,34.6523645 16.2366502,35.2816256 C17.4815764,36.5233005 19.1336453,37.2070936 20.8887192,37.2070936 C23.5808867,37.2070936 25.9736453,35.5966995 26.9846305,33.1044828 C27.2148768,32.5372906 26.9414778,31.8908867 26.3741379,31.6606404 Z" id="Shape"></path>
            <path d="M14.1274877,23.6055665 C13.5152217,23.6055665 13.0191133,24.1018227 13.0191133,24.7139409 L13.0191133,25.3664039 C13.0191133,25.9785222 13.5152217,26.4747783 14.1274877,26.4747783 C14.7397537,26.4747783 15.2358621,25.9785222 15.2358621,25.3664039 L15.2358621,24.7139409 C15.2358621,24.1018227 14.7397537,23.6055665 14.1274877,23.6055665 Z" id="Shape"></path>
            <path d="M27.6503941,23.6055665 C27.0381281,23.6055665 26.5420197,24.1018227 26.5420197,24.7139409 L26.5420197,25.3664039 C26.5420197,25.9785222 27.0381281,26.4747783 27.6503941,26.4747783 C28.2626601,26.4747783 28.7587685,25.9785222 28.7587685,25.3664039 L28.7587685,24.7139409 C28.7587685,24.1018227 28.2626601,23.6055665 27.6503941,23.6055665 Z" id="Shape"></path>
            <path d="M59.8191133,71.2981773 L57.2005419,66.7625616 C57.8466502,66.1616749 58.0195567,65.1728571 57.5599507,64.3768966 L56.7651724,63.0004433 C56.2312315,62.0759113 55.0446798,61.757734 54.1195567,62.2916749 L53.9423645,62.3939409 L53.4240887,61.4960099 C55.5898522,59.4444828 57.0283744,56.7221675 57.4882759,53.6933498 C57.580197,53.0881773 57.1640394,52.5230542 56.558867,52.431133 C55.9535468,52.339064 55.3884236,52.7552217 55.2966502,53.3605419 C54.8708867,56.1639901 53.4441872,58.6536946 51.2995567,60.416601 C51.2912808,60.4235468 51.282266,60.4299015 51.2741379,60.4369951 C50.8006404,60.8238916 50.2928571,61.1760591 49.7528571,61.4878818 C44.3368966,64.6146798 37.3869458,62.7524631 34.26,57.3366502 C32.7453695,54.713202 32.3429557,51.6567488 33.1270936,48.7306404 C33.9110837,45.8043842 35.7877833,43.3587192 38.4113793,41.8439409 C41.0348276,40.3291626 44.0912808,39.9267488 47.0173892,40.7108867 C49.9434975,41.4950246 52.3893103,43.3715764 53.9040887,45.9951724 C54.4856158,47.0021675 54.9070936,48.0823153 55.1569951,49.2056158 C55.29,49.8031034 55.8826108,50.179803 56.4796552,50.046798 C57.0771429,49.9139409 57.4538424,49.3217734 57.3208374,48.7241379 C57.0218719,47.3804926 56.5180788,46.0893103 55.8237931,44.886798 C54.0130049,41.7503941 51.0892611,39.5070443 47.5910837,38.5696552 C44.0936453,37.6324138 40.4392611,38.1133005 37.3030049,39.9242365 C34.166601,41.7348768 31.9232512,44.6587685 30.9858621,48.1569458 C30.0484729,51.6549754 30.5295074,55.3087685 32.3402956,58.4451724 C34.8489163,62.79 39.4152709,65.2217734 44.1048768,65.2216256 C45.3814286,65.2216256 46.6671429,65.0405911 47.9230049,64.6696552 L48.4427586,65.5695074 L48.2657143,65.6717734 C47.8176355,65.9303941 47.4970936,66.3481773 47.363202,66.8478325 C47.2293103,67.3474877 47.2981773,67.8694581 47.556798,68.3173892 L48.3514286,69.6938424 C48.6100493,70.1419212 49.0276847,70.4623153 49.5274877,70.5962069 C49.694335,70.6408374 49.8635468,70.6630049 50.0318719,70.6630049 C50.2235468,70.6630049 50.4130049,70.630936 50.5965517,70.5741872 L53.2158621,75.1108374 C53.4212808,75.4664039 53.7936946,75.6651724 54.1767488,75.6651724 C54.3647291,75.6651724 54.5555172,75.6172906 54.7299015,75.5165025 C55.26,75.2104433 55.4416256,74.5325616 55.1355665,74.0024631 L52.5421182,69.5105911 L53.9241872,68.7127094 L55.3062562,67.9148276 L57.8997044,72.4066995 C58.2057635,72.936798 58.8839409,73.1185714 59.4137438,72.8123645 C59.943399,72.5061576 60.1250246,71.8282759 59.8191133,71.2981773 Z M50.860936,63.4075862 C51.1393596,63.246798 51.409803,63.0762562 51.6737438,62.8983251 L52.0223645,63.5024631 L50.3623153,64.4609852 L50.0136946,63.8572906 C50.299064,63.7182266 50.5817734,63.56867 50.860936,63.4075862 Z M55.157734,65.4404926 C55.1575862,65.4404926 55.1574384,65.4406404 55.1572906,65.4406404 L52.8153695,66.7927094 L50.1305911,68.3426601 L49.6160099,67.4512315 L54.9852709,64.35133 L55.5,65.2429064 L55.157734,65.4404926 Z" id="Shape"></path>
            <path d="M52.9232512,46.5611823 C51.5596552,44.1994581 49.3581281,42.5101478 46.7240394,41.804335 C44.0902463,41.0985222 41.33867,41.4607389 38.9769458,42.8241872 C35.8266502,44.6429557 33.8698522,48.0348768 33.8705911,51.6762562 C33.8707389,52.2883744 34.3669951,52.7846305 34.9791133,52.7844828 C35.5913793,52.784335 36.0874877,52.2880788 36.0873399,51.6759606 C36.0867488,48.824335 37.61867,46.1680788 40.0853202,44.7440394 C43.9015271,42.5407389 48.799803,43.8527586 51.0035468,47.6695567 C53.2072906,51.4862069 51.8948276,56.3841872 48.0781773,58.5877833 C44.2616749,60.7912315 39.3635468,59.479064 37.1600985,55.6627094 C37.1300985,55.6106897 37.1008374,55.5585222 37.0720197,55.5062069 C36.7774877,54.9696059 36.1037438,54.7734975 35.5669951,55.067734 C35.0303941,55.362266 34.8341379,56.0360099 35.1285222,56.5727586 C35.1647291,56.6388177 35.2018227,56.7045813 35.2399507,56.7706404 C37.1289163,60.0424138 40.5675369,61.8734483 44.0988177,61.8734483 C45.8295074,61.8734483 47.5828079,61.4333498 49.1864039,60.5076355 C54.0616256,57.6928079 55.737931,51.4365517 52.9232512,46.5611823 Z" id="Shape"></path>
        </g>
    </g>
</svg>