<?xml version="1.0" encoding="UTF-8"?>
<svg width="60px" height="60px" viewBox="0 0 60 60" version="1.1" xmlns="http://www.w3.org/2000/svg" xmlns:xlink="http://www.w3.org/1999/xlink">
    <!-- Generator: Sketch 49.3 (51167) - http://www.bohemiancoding.com/sketch -->
    <title>004-search-1</title>
    <desc>Created with Sketch.</desc>
    <defs></defs>
    <g id="Page-1" stroke="none" stroke-width="1" fill="none" fill-rule="evenodd">
        <g id="004-search-1" fill="#30B6D3" fill-rule="nonzero">
            <path d="M50.1746484,18.2125781 L38.9797266,10.08375 C38.5657031,9.78316406 37.9864453,9.87503906 37.685625,10.2890625 C37.3849219,10.7030859 37.4770313,11.2824609 37.8910547,11.5831641 L49.0860938,19.711875 C49.2505078,19.8311719 49.4408203,19.8887109 49.6296094,19.8887109 C49.9160156,19.8887109 50.1986719,19.7561719 50.3800781,19.5065625 C50.6807813,19.0925391 50.5887891,18.5131641 50.1746484,18.2125781 Z" id="Shape"></path>
            <path d="M22.6004297,13.7661328 C22.5202734,13.2608203 22.0455469,12.9155859 21.5402344,12.9963281 L7.87640625,15.1646484 C7.37109375,15.2448047 7.02644531,15.7195313 7.10660156,16.2248438 C7.17902344,16.6810547 7.57277344,17.00625 8.02042969,17.00625 C8.06871094,17.00625 8.11769531,17.0025 8.16679688,16.9946484 L21.8307422,14.8263281 C22.3361719,14.7461719 22.6808203,14.2715625 22.6004297,13.7661328 Z" id="Shape"></path>
            <path d="M59.6176172,15.2991797 L38.8267969,0.202851562 C38.6280469,0.05859375 38.3803125,-0.001171875 38.1372656,0.0376171875 C37.8946875,0.076171875 37.6771875,0.209414062 37.5326953,0.408164062 L28.4657813,12.8954297 L27.2173828,5.02875 C27.1789453,4.78605469 27.0455859,4.56867187 26.8467188,4.42417969 C26.6478516,4.2796875 26.3996484,4.22050781 26.1571875,4.25894531 L0.78140625,8.28585937 C0.27609375,8.36601562 -0.0685546875,8.84074219 0.0116015625,9.3459375 L4.96757813,40.5779297 C5.00613281,40.820625 5.139375,41.0380078 5.338125,41.1825 C5.49738281,41.2981641 5.68804688,41.3592187 5.88246094,41.3592187 C5.93074219,41.3592187 5.97925781,41.3553516 6.02765625,41.3477344 L11.8585547,40.4224219 L11.8585547,50.3629687 C11.8585547,50.8746094 12.2733984,51.2894531 12.7850391,51.2894531 L38.4785156,51.2894531 C38.9902734,51.2894531 39.405,50.8746094 39.405,50.3629687 L39.405,47.7505078 C40.040625,47.3854687 40.6409766,46.9640625 41.1984375,46.4873437 L43.5069141,48.7959375 L42.7645313,49.5383203 C42.4027734,49.9000781 42.4027734,50.4867187 42.7645313,50.8485937 L51.1497656,59.2338281 C51.3307031,59.4147656 51.5677734,59.5052344 51.8049609,59.5052344 C52.0420313,59.5052344 52.2792188,59.4147656 52.4601563,59.2338281 L55.2553125,56.4386719 C55.4289844,56.265 55.5266016,56.0293359 55.5266016,55.7835937 C55.5266016,55.5378516 55.4289844,55.3021875 55.2553125,55.1285156 L46.8699609,46.7432812 C46.6961719,46.5694922 46.4605078,46.471875 46.2147656,46.471875 C45.9690234,46.471875 45.7334766,46.5694922 45.5595703,46.7432812 L44.8171875,47.4856641 L42.5087109,45.1771875 C44.3369531,43.0429687 45.3342188,40.3564453 45.3342188,37.5161719 C45.3342188,37.2123047 45.3215625,36.9045703 45.2977734,36.5974219 L59.8230469,16.5930469 C60.12375,16.1790234 60.0317578,15.5996484 59.6176172,15.2991797 Z M46.2146484,48.70875 L53.2897266,55.7838281 L51.8048438,57.2687109 L44.7298828,50.1936328 L46.2146484,48.70875 Z M11.8586719,18.7401562 L11.8586719,22.5371484 L9.11542969,22.9725 C8.61011719,23.0526562 8.26546875,23.5273828 8.345625,24.0326953 C8.41804688,24.4889062 8.81179688,24.8141016 9.25945313,24.8141016 C9.30773438,24.8141016 9.35671875,24.8103516 9.40582031,24.8025 L11.8586719,24.4133203 L11.8586719,30.541875 L10.3543359,30.7804687 C9.84902344,30.860625 9.504375,31.3353516 9.58453125,31.8406641 C9.65695313,32.296875 10.0507031,32.6220703 10.4983594,32.6220703 C10.5466406,32.6220703 10.595625,32.6183203 10.6447266,32.6104687 L11.8586719,32.4179297 L11.8586719,38.5464844 L6.65226562,39.3726562 L1.98679688,9.97066406 L25.5328125,6.23425781 L26.9262891,15.0157031 L24.8946094,17.8136719 L12.7850391,17.8136719 C12.2733984,17.8137891 11.8586719,18.2285156 11.8586719,18.7401562 Z M37.5522656,49.4366016 L13.7115234,49.4366016 L13.7115234,39.3375 L13.7115234,31.3328906 L13.7115234,23.3283984 L13.7115234,19.666875 L25.3652344,19.666875 C25.3654688,19.666875 25.3657031,19.6669922 25.3659375,19.6669922 C25.3662891,19.6669922 25.3666406,19.666875 25.366875,19.666875 L28.455,19.666875 L35.8678125,19.666875 C35.8680469,19.666875 35.8682813,19.6669922 35.8685156,19.6669922 C35.8688672,19.6669922 35.8692187,19.666875 35.8696875,19.666875 L37.5519141,19.666875 L37.5519141,20.6348437 L37.5519141,26.4214453 C36.2714062,25.9557422 34.9266797,25.7197266 33.5373047,25.7197266 C33.2784375,25.7197266 33.0207422,25.7292187 32.7644531,25.7458594 C32.6953125,25.7294531 32.6233594,25.7197266 32.5491797,25.7197266 L18.7142578,25.7197266 C18.2026172,25.7197266 17.7877734,26.1345703 17.7877734,26.6462109 C17.7877734,27.1578516 18.2026172,27.5726953 18.7142578,27.5726953 L27.1890234,27.5726953 C26.1880078,28.2126562 25.2778125,29.0074219 24.4947656,29.9414062 C23.5708594,31.0429687 22.8686719,32.2798828 22.4001563,33.6254297 L18.714375,33.6254297 C18.2027344,33.6254297 17.7878906,34.0402734 17.7878906,34.5519141 C17.7878906,35.0635547 18.2027344,35.4783984 18.714375,35.4783984 L21.9178125,35.4783984 C21.8002734,36.1502344 21.7408594,36.8321484 21.7408594,37.5166406 C21.7408594,38.9070703 21.9765234,40.2517969 22.4414063,41.53125 L18.7144922,41.53125 C18.2028516,41.53125 17.7880078,41.9460937 17.7880078,42.4577344 C17.7880078,42.969375 18.2028516,43.3842187 18.7144922,43.3842187 L23.3030859,43.3842187 C25.4066016,47.0554687 29.27625,49.3134375 33.5376562,49.3134375 C34.9279687,49.3134375 36.2726953,49.0777734 37.5522656,48.6128906 L37.5522656,49.4366016 Z M40.5689063,44.5476562 C40.5687891,44.5477734 40.5686719,44.5478906 40.5685547,44.5480078 C39.8293359,45.2872266 38.9841797,45.9022266 38.056875,46.37625 C36.6500391,47.0954297 35.1295312,47.4601172 33.5375391,47.4601172 C29.7829688,47.4601172 26.3879297,45.3815625 24.6774609,42.035625 C24.6773438,42.0353906 24.6772266,42.0351562 24.6771094,42.0349219 C23.9581641,40.6283203 23.5937109,39.1080469 23.5937109,37.5162891 C23.5937109,36.598125 23.7201563,35.6854687 23.9697656,34.8039844 C24.3533203,33.4489453 25.0078125,32.2133203 25.9148438,31.1316797 C27.8115234,28.8697266 30.5899219,27.5724609 33.5376563,27.5724609 C35.1277734,27.5724609 36.6483984,27.9376172 38.056875,28.6579688 C41.0561719,30.1918359 43.0623047,33.0987891 43.4226563,36.4342969 C43.4227734,36.4348828 43.4228906,36.4355859 43.4228906,36.4362891 C43.4616797,36.7965234 43.4814844,37.1598047 43.4814844,37.5162891 C43.4813672,40.1725781 42.4470703,42.6694922 40.5689063,44.5476562 Z M44.8290234,34.089375 C43.9662891,31.2311719 42.0420703,28.7951953 39.405,27.2833594 L39.405,22.4524219 L44.44125,26.1091406 C44.6056641,26.2284375 44.7959766,26.2859766 44.9847656,26.2859766 C45.2711719,26.2859766 45.5538281,26.1534375 45.7352344,25.9038281 C46.0359375,25.4898047 45.9438281,24.9104297 45.5298047,24.6097266 L39.405,20.1625781 L39.405,18.7403906 C39.405,18.22875 38.9902734,17.8139062 38.4785156,17.8139062 L36.1703906,17.8139062 L34.3347656,16.4810156 C33.9207422,16.1804297 33.34125,16.2721875 33.0406641,16.6863281 C32.7885937,17.0334375 32.8133203,17.4960937 33.0714844,17.8139062 L28.4548828,17.8139062 L27.1842187,17.8139062 L28.6507031,15.7942969 C28.6508203,15.7941797 28.6509375,15.7940625 28.6510547,15.7938281 L38.4877734,2.24660156 L57.7792969,16.2541406 L44.8290234,34.089375 Z" id="Shape"></path>
            <path d="M33.5375391,29.6724609 C29.2123828,29.6724609 25.6935938,33.19125 25.6935938,37.5164062 C25.6935938,41.8415625 29.2123828,45.3603516 33.5375391,45.3603516 C37.8626953,45.3603516 41.3814844,41.8415625 41.3814844,37.5164062 C41.3814844,33.1911328 37.8626953,29.6724609 33.5375391,29.6724609 Z M33.5375391,43.5073828 C30.2340234,43.5073828 27.5465625,40.8198047 27.5465625,37.5164062 C27.5465625,34.2128906 30.2341406,31.5254297 33.5375391,31.5254297 C36.8410547,31.5254297 39.5285156,34.2130078 39.5285156,37.5164062 C39.5285156,40.8198047 36.8409375,43.5073828 33.5375391,43.5073828 Z" id="Shape"></path>
            <path d="M36.1691016,37.3553906 C35.8072266,36.9936328 35.2207031,36.9936328 34.8587109,37.3553906 L32.3881641,39.8259375 C32.0264062,40.1876953 32.0264062,40.7743359 32.3881641,41.1360938 C32.5691016,41.3169141 32.8062891,41.4075 33.0433594,41.4075 C33.2804297,41.4075 33.5176172,41.3170312 33.6985547,41.1360938 L36.1691016,38.6655469 C36.5309766,38.3036719 36.5309766,37.7170312 36.1691016,37.3553906 Z" id="Shape"></path>
            <path d="M35.1808594,33.4025391 C34.8189844,33.0407812 34.2324609,33.0407812 33.8705859,33.4025391 L31.1530078,36.1201172 C30.79125,36.481875 30.79125,37.0685156 31.1530078,37.4302734 C31.3339453,37.6110938 31.5711328,37.7016797 31.8082031,37.7016797 C32.0452734,37.7016797 32.2824609,37.6112109 32.4633984,37.4302734 L35.1808594,34.7126953 C35.5427344,34.3508203 35.5427344,33.7641797 35.1808594,33.4025391 Z" id="Shape"></path>
        </g>
    </g>
</svg>