<?xml version="1.0" encoding="UTF-8"?>
<svg width="513px" height="512px" viewBox="0 0 513 512" version="1.1" xmlns="http://www.w3.org/2000/svg" xmlns:xlink="http://www.w3.org/1999/xlink">
    <!-- Generator: Sketch 49.3 (51167) - http://www.bohemiancoding.com/sketch -->
    <title>tools</title>
    <desc>Created with Sketch.</desc>
    <defs></defs>
    <g id="Page-1" stroke="none" stroke-width="1" fill="none" fill-rule="evenodd">
        <g id="tools" transform="translate(0.000000, -1.000000)" fill-rule="nonzero">
            <path d="M347.339844,156.148438 C341.820312,156.148438 337.339844,160.617188 337.339844,166.144531 C337.339844,171.667969 341.820312,176.144531 347.339844,176.144531 C352.871094,176.144531 357.339844,171.667969 357.339844,166.144531 C357.339844,160.617188 352.871094,156.148438 347.339844,156.148438 Z" id="Shape" fill="#FFFFFF"></path>
            <path d="M165.644531,337.839844 C160.113281,337.839844 155.644531,342.320312 155.644531,347.839844 C155.644531,353.371094 160.113281,357.839844 165.644531,357.839844 C171.164062,357.839844 175.644531,353.371094 175.644531,347.839844 C175.644531,342.320312 171.164062,337.839844 165.644531,337.839844 Z" id="Shape" fill="#FFFFFF"></path>
            <path d="M500.058594,62.519531 C496.683594,61.734375 493.136719,62.753906 490.699219,65.214844 L449.242188,107 L429.367188,107 L407.488281,84.332031 L407.488281,64.179688 L448.351562,22.707031 C450.769531,20.253906 451.753906,16.726562 450.953125,13.371094 C450.15625,10.019531 447.6875,7.316406 444.421875,6.214844 C434.15625,2.753906 423.414062,1 412.488281,1 C379.917969,1 350.328125,16.1875 331.304688,42.667969 C313.5,67.457031 308.011719,97.835938 315.875,126.910156 L242.214844,200.570312 L119.496094,77.570312 L119.496094,53.429688 C119.496094,49.917969 117.652344,46.660156 114.640625,44.855469 L43.933594,2.425781 C39.996094,0.0625 34.960938,0.683594 31.71875,3.929688 L3.4375,32.207031 C0.195312,35.453125 -0.425781,40.488281 1.933594,44.425781 L44.355469,115.132812 C46.160156,118.144531 49.414062,119.984375 52.925781,119.988281 L77.058594,119.996094 L199.789062,242.996094 L126.410156,316.375 C97.335938,308.515625 66.941406,314.011719 42.140625,331.828125 C15.675781,350.839844 0.5,380.421875 0.5,412.992188 C0.5,423.914062 2.253906,434.660156 5.714844,444.921875 C6.820312,448.207031 9.550781,450.6875 12.925781,451.46875 C16.304688,452.253906 19.847656,451.234375 22.289062,448.773438 L63.742188,406.992188 L83.726562,406.992188 L106.496094,429.761719 L106.496094,449.746094 L64.714844,491.199219 C62.253906,493.640625 61.234375,497.183594 62.019531,500.5625 C62.800781,503.9375 65.28125,506.667969 68.566406,507.773438 C78.828125,511.234375 89.574219,512.988281 100.496094,512.988281 C133.066406,512.988281 162.644531,497.808594 181.660156,471.34375 C199.476562,446.542969 204.972656,416.152344 197.113281,387.078125 L256.046875,328.144531 L269.546875,342.808594 L263.351562,349 C259.445312,352.90625 259.445312,359.238281 263.351562,363.144531 C267.257812,367.046875 273.585938,367.046875 277.496094,363.144531 L283.105469,357.535156 L409.769531,495.121094 C409.863281,495.222656 409.960938,495.320312 410.058594,495.417969 C433.496094,518.855469 471.46875,518.863281 494.917969,495.414062 C518.300781,472.019531 518.300781,433.953125 494.917969,410.558594 C494.816406,410.457031 494.710938,410.359375 494.605469,410.261719 L356.804688,283.839844 L362.351562,278.292969 C366.257812,274.390625 366.257812,268.058594 362.351562,264.152344 C358.445312,260.246094 352.117188,260.246094 348.207031,264.152344 L342.054688,270.308594 L327.363281,256.824219 L386.582031,197.605469 C395,199.855469 403.6875,200.996094 412.488281,200.996094 C467.628906,200.996094 512.484375,156.136719 512.484375,101 C512.484375,90.074219 510.730469,79.332031 507.269531,69.066406 C506.164062,65.78125 503.433594,63.300781 500.058594,62.519531 Z M88.285156,102.933594 C86.410156,101.054688 83.867188,100.097656 81.210938,100.097656 L58.59375,100.089844 L23.101562,40.832031 L40.339844,23.59375 L99.496094,59.09375 L99.496094,81.710938 C99.496094,84.359375 100.546875,86.898438 102.417969,88.773438 L228.074219,214.714844 L213.929688,228.855469 L88.285156,102.933594 Z M342.648438,297.996094 L480.917969,424.84375 C496.363281,440.453125 496.316406,465.726562 480.773438,481.277344 C465.195312,496.855469 439.976562,496.902344 424.335938,481.414062 L297.257812,343.378906 L342.648438,297.996094 Z M327.898438,284.460938 L283.699219,328.652344 L270.199219,313.988281 L313.207031,270.976562 L327.898438,284.460938 Z M412.488281,180.996094 C403.742188,180.996094 395.140625,179.59375 386.929688,176.828125 C383.332031,175.621094 379.355469,176.550781 376.667969,179.234375 C326.535156,229.367188 218.511719,337.386719 178.734375,377.167969 C176.046875,379.855469 175.113281,383.832031 176.328125,387.433594 C184.640625,412.117188 180.664062,438.445312 165.414062,459.675781 C150.207031,480.84375 126.542969,492.988281 100.496094,492.988281 C97.570312,492.988281 94.660156,492.828125 91.777344,492.519531 L123.539062,461.003906 C125.429688,459.128906 126.496094,456.574219 126.496094,453.90625 L126.496094,425.617188 C126.496094,422.964844 125.441406,420.421875 123.566406,418.546875 L94.9375,389.917969 C93.0625,388.042969 90.519531,386.988281 87.867188,386.988281 L59.578125,386.988281 C56.910156,386.988281 54.355469,388.054688 52.476562,389.945312 L20.964844,421.707031 C20.652344,418.824219 20.496094,415.914062 20.496094,412.988281 C20.496094,386.9375 32.636719,363.277344 53.808594,348.070312 C75.035156,332.820312 101.367188,328.839844 126.054688,337.15625 C129.652344,338.371094 133.628906,337.4375 136.316406,334.75 C136.867188,334.203125 334.109375,136.957031 334.25,136.816406 C336.9375,134.128906 337.867188,130.15625 336.65625,126.554688 C328.339844,101.871094 332.308594,75.550781 347.546875,54.335938 C362.765625,33.148438 386.433594,21 412.484375,21 C415.5,21 418.496094,21.167969 421.464844,21.496094 L390.363281,53.0625 C388.519531,54.933594 387.488281,57.453125 387.488281,60.078125 L387.488281,88.367188 C387.488281,90.960938 388.492188,93.449219 390.292969,95.3125 L417.921875,123.941406 C419.804688,125.894531 422.402344,126.996094 425.117188,126.996094 L453.40625,126.996094 C456.070312,126.996094 458.625,125.933594 460.503906,124.039062 L492.015625,92.28125 C492.328125,95.164062 492.484375,98.074219 492.484375,101 C492.484375,145.109375 456.597656,180.996094 412.488281,180.996094 Z" id="Shape" fill="#FFFFFF"></path>
            <path d="M311.988281,187.355469 L186.851562,312.492188 C182.949219,316.394531 182.949219,322.726562 186.851562,326.632812 C190.757812,330.539062 197.089844,330.539062 200.996094,326.632812 L326.132812,201.496094 C330.039062,197.59375 330.039062,191.261719 326.132812,187.355469 C322.226562,183.449219 315.894531,183.449219 311.988281,187.355469 Z" id="Shape" fill="#FEFEFE"></path>
            <path d="M438.355469,453 C442.261719,456.894531 448.59375,456.894531 452.5,452.976562 C456.398438,449.066406 456.386719,442.734375 452.476562,438.835938 L362.339844,348.988281 C358.429688,345.089844 352.09375,345.101562 348.199219,349.011719 C344.296875,352.925781 344.308594,359.253906 348.21875,363.152344 L438.355469,453 Z" id="Shape" fill="#FFFFFF"></path>
        </g>
    </g>
</svg>